<?xml version="1.0" encoding="utf-8"?>
<!-- Generator: Adobe Illustrator 24.3.0, SVG Export Plug-In . SVG Version: 6.00 Build 0)  -->
<svg version="1.1" id="Layer_1" xmlns="http://www.w3.org/2000/svg" xmlns:xlink="http://www.w3.org/1999/xlink" x="0px" y="0px"
	 viewBox="0 0 64 64" style="enable-background:new 0 0 64 64;" xml:space="preserve">
<style type="text/css">
	.st0{fill:none;}
	.st1{fill-rule:evenodd;clip-rule:evenodd;fill:url(#SVGID_1_);}
	.st2{fill-rule:evenodd;clip-rule:evenodd;fill:url(#SVGID_2_);}
</style>
<g>
	<g>
		<rect x="6" y="9" class="st0" width="52.2" height="46"/>
	</g>
</g>
<g>
	<g>
		<rect x="24.7" y="30.2" class="st0" width="14.9" height="14.8"/>
	</g>
</g>
<linearGradient id="SVGID_1_" gradientUnits="userSpaceOnUse" x1="6.0163" y1="31.9879" x2="58.1737" y2="31.9879">
	<stop  offset="0" style="stop-color:#2298BD"/>
	<stop  offset="1" style="stop-color:#0ED7B5"/>
</linearGradient>
<path class="st1" d="M26,29.9c-1.9,0.7-3.6,1.6-5,2.9c-0.1,0-0.1,0.1-0.2,0.1c-0.2,0.1-0.5,0.2-0.8,0.2c-0.3,0-0.5-0.1-0.7-0.2
	c-0.3-0.1-0.4-0.3-0.6-0.6s-0.2-0.5-0.2-0.8c0-0.3,0-0.5,0.2-0.7L30.8,9.8h0c0.1-0.2,0.3-0.4,0.6-0.6C31.6,9,31.8,9,32.1,9
	c0.3,0,0.5,0.1,0.7,0.2c0.2,0.1,0.4,0.3,0.6,0.6c0,0,0,0,0,0l12.1,21.1c0.1,0.2,0.2,0.5,0.2,0.8c0,0.3-0.1,0.5-0.2,0.8
	c-0.1,0.2-0.3,0.4-0.6,0.6c-0.2,0.1-0.5,0.2-0.7,0.2c-0.3,0-0.5,0-0.8-0.2c-0.1,0-0.1-0.1-0.2-0.2c-1.5-1.2-3.2-2.2-5-2.9
	c-1.9-0.7-3.9-1-6-1C29.9,28.8,27.9,29.2,26,29.9z M25,27c2.2-0.8,4.6-1.2,7.1-1.2c2.5,0,4.9,0.4,7.1,1.2c0.2,0.1,0.5,0.2,0.7,0.3
	l-7.8-13.7l-7.8,13.7C24.5,27.2,24.7,27.1,25,27z M36.7,45.5c1.4-0.4,2.8-0.9,4.1-1.7c1.3-0.7,2.4-1.6,3.4-2.6c1-1,1.9-2.2,2.6-3.4
	c0,0,0,0,0,0c0.1-0.2,0.3-0.4,0.6-0.6c0.2-0.1,0.5-0.2,0.8-0.2s0.5,0.1,0.8,0.2c0.2,0.1,0.4,0.3,0.6,0.6l8.6,15
	c0.1,0.2,0.2,0.5,0.2,0.8c0,0.3-0.1,0.5-0.2,0.7c-0.1,0.2-0.3,0.4-0.6,0.6c-0.2,0.1-0.5,0.2-0.7,0.2H7.6c-0.3,0-0.5-0.1-0.8-0.2
	c-0.2-0.1-0.4-0.3-0.6-0.6C6.1,54,6,53.7,6,53.5c0-0.3,0.1-0.5,0.2-0.8l8.6-15c0.1-0.2,0.3-0.4,0.6-0.6c0.2-0.1,0.5-0.2,0.8-0.2
	c0.3,0,0.5,0.1,0.8,0.2c0.2,0.1,0.4,0.3,0.6,0.6c0.7,1.3,1.6,2.4,2.6,3.4c1,1,2.1,1.9,3.4,2.6c1.3,0.7,2.6,1.3,4.1,1.7
	c1.4,0.4,3,0.6,4.6,0.6C33.7,46,35.2,45.8,36.7,45.5z M10.2,51.9H54l-6-10.5c-0.5,0.7-1.1,1.3-1.6,1.9c-1.2,1.2-2.6,2.2-4.1,3.1
	c-1.5,0.8-3.1,1.5-4.8,2c-1.7,0.4-3.5,0.7-5.4,0.7s-3.7-0.2-5.4-0.7c-1.7-0.5-3.3-1.1-4.8-2c-1.5-0.9-2.9-1.9-4.1-3.1
	c-0.6-0.6-1.1-1.2-1.6-1.9L10.2,51.9z"/>
<linearGradient id="SVGID_2_" gradientUnits="userSpaceOnUse" x1="24.6664" y1="37.5684" x2="39.5236" y2="37.5684">
	<stop  offset="0" style="stop-color:#2298BD"/>
	<stop  offset="1" style="stop-color:#0ED7B5"/>
</linearGradient>
<path class="st2" d="M35,30.7c0.9,0.4,1.7,0.9,2.4,1.6c0.7,0.7,1.2,1.5,1.6,2.4c0.4,0.9,0.6,1.9,0.6,2.9c0,1.1-0.2,2-0.6,2.9
	c-0.4,0.9-0.9,1.7-1.6,2.4c-0.7,0.7-1.5,1.2-2.4,1.6c-0.9,0.4-1.9,0.6-2.9,0.6c-1.1,0-2-0.2-2.9-0.6c-0.9-0.4-1.7-0.9-2.4-1.6
	c-0.7-0.7-1.2-1.5-1.6-2.4c-0.4-0.9-0.6-1.9-0.6-2.9c0-1,0.2-2,0.6-2.9c0.4-0.9,0.9-1.7,1.6-2.4c0.7-0.7,1.5-1.2,2.4-1.6
	c0.9-0.4,1.9-0.6,2.9-0.6C33.1,30.2,34.1,30.4,35,30.7z M29,34.5c-0.4,0.4-0.7,0.8-0.9,1.4c-0.2,0.5-0.3,1.1-0.3,1.7
	c0,0.6,0.1,1.2,0.3,1.7c0.2,0.5,0.5,1,0.9,1.4c0.4,0.4,0.8,0.7,1.4,0.9c0.5,0.2,1.1,0.3,1.8,0.3c0.6,0,1.2-0.1,1.7-0.3
	c0.5-0.2,1-0.5,1.4-0.9c0.4-0.4,0.7-0.8,0.9-1.4c0.2-0.5,0.3-1.1,0.3-1.7c0-0.6-0.1-1.2-0.3-1.7c-0.2-0.5-0.5-1-0.9-1.4
	c-0.4-0.4-0.8-0.7-1.4-0.9c-0.5-0.2-1.1-0.3-1.7-0.3c-0.6,0-1.2,0.1-1.8,0.3C29.8,33.8,29.4,34.1,29,34.5z"/>
</svg>
